<svg width="2456" height="890" viewBox="0 0 2456 890" fill="none" xmlns="http://www.w3.org/2000/svg">
<path d="M639.008 625.916C644.62 623.416 661.659 623.416 684.921 643.416C708.184 663.416 750.73 709.749 769.095 730.416L805.826 771.916C812.117 785.916 823.681 815.416 819.6 821.416C814.498 828.916 794.092 870.916 792.052 866.416C790.011 861.916 761.953 884.416 755.831 881.416C750.934 879.016 728.624 880.416 718.081 881.416L689.002 866.416L562.487 734.916L555.345 719.916V706.916L565.547 693.916L538.51 672.416L550.753 658.916L602.788 607.416L605.339 604.916L639.008 625.916Z" fill="#68330D"/>
<path d="M639.008 625.916C644.62 623.416 661.659 623.416 684.921 643.416C708.184 663.416 750.73 709.749 769.095 730.416L805.826 771.916C812.117 785.916 823.681 815.416 819.6 821.416C814.498 828.916 794.092 870.916 792.052 866.416C790.011 861.916 761.953 884.416 755.831 881.416C750.934 879.016 728.624 880.416 718.081 881.416L689.002 866.416L562.487 734.916L555.345 719.916V706.916L565.547 693.916M639.008 625.916L565.547 693.916M639.008 625.916L605.339 604.916L602.788 607.416L550.753 658.916L538.51 672.416L565.547 693.916" stroke="#68330D" stroke-width="5"/>
<path d="M139.577 110.916L133.965 130.416L112.029 134.916C106.247 136.416 91.827 140.816 80.3997 146.416C68.9725 152.016 50.8113 163.083 43.1592 167.916L24.2838 191.916L14.0809 212.416L9.48961 225.916L5.40845 261.416V293.416L34.4867 373.916L38.5679 385.916L36.0171 395.916L40.6084 463.416L42.649 486.916L66.1157 549.416L100.806 605.916L133.455 644.416L159.472 666.416L203.855 697.416L243.646 713.416L299.762 726.416L332.921 730.416L388.017 726.416L418.116 719.416L486.985 696.416L531.878 671.416L603.808 603.916L618.603 579.416L633.397 553.916L653.803 497.916L659.924 476.916L667.066 413.416V395.916V376.416L681.35 344.416L685.432 328.916L695.634 301.416L697.165 290.916V283.916L695.634 267.416V238.416L693.594 218.416L673.698 183.916L657.884 162.916L623.704 144.416L600.237 137.416L588.504 135.916L569.118 131.916L565.037 116.916L559.936 99.916L552.284 82.416L546.162 67.416L521.165 38.416L502.8 25.416L486.985 15.416L448.214 8.41602H431.379C428.931 8.41602 421.176 10.416 417.605 11.416L402.811 15.416L388.527 18.416L376.794 22.416L362.51 30.416L352.307 34.416L340.063 23.916L324.249 15.416L303.843 8.41602L290.069 6.41602H277.826L262.011 4.41602L246.197 8.41602L226.811 12.916L208.446 18.416L193.142 27.916L182.429 36.916L168.655 49.416L151.31 75.416L143.658 97.416L139.577 110.916Z" fill="#62503C" stroke="#EBEBEB" stroke-width="3"/>
<path d="M641.559 619.916L582.893 678.416C605.169 700.416 663.802 757.616 720.122 810.416C784.604 839.616 802.085 794.583 802.765 768.416C761.443 724.416 676.861 634.816 669.107 628.416C661.353 622.016 647.511 620.083 641.559 619.916Z" fill="#CEA74E" stroke="#CEA74E" stroke-opacity="0.807843" stroke-width="5"/>
<path d="M674.208 629.416C658.292 614.216 639.688 619.749 632.376 624.416C611.97 642.749 568.302 683.016 556.875 697.416C545.448 711.816 552.113 729.749 556.875 736.916C591.905 773.083 667.168 850.616 687.982 871.416C718.591 890.416 776.845 892.149 804.295 859.416C834.904 822.916 820.109 783.416 804.295 760.416C767.565 723.083 690.125 644.616 674.208 629.416Z" stroke="#1F1A1A" stroke-width="10"/>
<path d="M169.675 136.416L168.145 158.416L139.067 160.416L89.0723 186.916L68.1564 218.916L58.4636 252.416V285.916V309.916L74.7883 356.916L83.4607 383.416L79.3796 418.916L89.0723 474.416L112.539 535.916L145.188 583.416L171.206 614.416L218.649 653.416L265.582 673.916L308.945 685.416L366.591 688.416L436.481 668.416L489.026 646.916L517.594 626.916L548.203 592.416L577.281 558.916L599.727 505.916L611.971 472.416L619.113 440.916V406.416V378.916L643.6 312.916V285.916V255.916L638.498 232.416L628.295 207.416L612.991 186.916L580.342 166.916L559.426 159.416H536.469L526.266 122.916L517.084 103.416L496.168 75.916L476.272 64.416L448.724 51.916C446.684 51.2493 437.807 49.516 418.626 47.916C399.444 46.316 390.568 52.2493 388.527 55.416L353.838 74.416L334.452 59.916L291.6 46.916L249.258 51.416L232.933 58.416C225.791 61.416 209.569 69.116 201.814 75.916C194.06 82.716 187.36 95.416 184.98 100.916L169.675 136.416Z" fill="#A98F70" stroke="#A98F70" stroke-width="5"/>
<path d="M250.278 319.916L246.197 326.916L230.893 349.416L208.956 378.416L198.753 387.916L192.632 391.916L180.388 402.416L175.287 407.416L167.635 416.416L161.003 427.416L157.432 433.916C156.411 436.916 154.371 443.116 154.371 443.916C154.371 444.716 153.01 449.249 152.33 451.416L150.29 461.416L149.78 470.916L150.8 481.416L152.84 492.416L156.411 502.416L162.023 514.416L170.695 526.916L184.98 541.916L194.162 548.916L206.406 556.416L215.588 560.916L232.933 566.416L243.646 568.416L260.991 569.916H275.785L295.171 566.416L307.414 562.416L319.658 559.916L350.777 559.416L371.182 559.916L384.446 560.916L392.098 562.916L411.484 567.916L427.808 569.916H444.643L460.458 567.916L471.681 564.916L482.394 561.416L492.087 556.916L500.249 552.916L508.411 547.416L522.185 535.916L532.388 523.416L539.53 511.916L545.142 499.416L547.182 492.416L549.223 482.916L550.243 476.416V465.416L548.203 450.916L544.121 437.916L538.51 425.916L530.348 413.916L523.716 405.916L516.064 398.416L510.452 393.916L500.759 387.416L489.536 377.916L479.843 366.416L471.171 354.916L458.927 338.416L450.765 326.916L446.174 319.416L440.052 310.416L433.42 301.916L425.258 293.916L416.585 285.916L412.504 282.916L406.893 279.416L394.649 272.416L390.568 270.916L381.895 267.916L378.324 266.916L364.551 263.916L358.939 263.416L354.348 262.916H345.165H341.084L334.962 263.916L326.29 264.916L316.597 267.416L311.495 268.916L306.904 270.916L302.313 272.916L296.701 275.416L289.049 279.916L284.458 282.916L280.377 285.916L278.846 286.916L275.785 289.416L273.235 291.916L270.174 294.416L267.623 297.416L265.582 299.416L263.542 301.416L262.011 303.416L259.971 305.916L258.44 307.916L256.91 309.916L255.38 311.916L253.339 314.916L251.809 317.416L250.278 319.916Z" fill="#989797"/>
<path d="M282.421 331.134L279.665 336.196L269.332 352.467L254.522 373.437L247.633 380.307L243.5 383.199L235.234 390.792L231.79 394.408L226.623 400.916L222.146 408.87L219.735 413.571C219.046 415.74 217.668 420.223 217.668 420.802C217.668 421.381 216.749 424.659 216.29 426.225L214.913 433.457L214.568 440.326L215.257 447.919L216.635 455.874L219.046 463.105L222.834 471.782L228.69 480.822L238.334 491.668L244.533 496.73L252.8 502.154L258.999 505.408L270.71 509.385L277.943 510.831L289.654 511.916H299.642L312.73 509.385L320.997 506.493L329.263 504.685L350.273 504.323L364.05 504.685L373.005 505.408L378.172 506.854L391.26 510.47L402.282 511.916H413.648L424.325 510.47L431.903 508.3L439.136 505.769L445.68 502.515L451.191 499.623L456.702 495.646L466.001 487.33L472.89 478.291L477.712 469.975L481.501 460.936L482.878 455.874L484.256 449.004L484.945 444.304V436.349L483.567 425.864L480.812 416.463L477.023 407.786L471.512 399.108L467.035 393.323L461.868 387.9L458.079 384.646L451.535 379.945L443.958 373.076L437.414 364.76L431.558 356.444L423.292 344.512L417.781 336.196L414.681 330.773L410.548 324.265L406.071 318.118L400.56 312.333L394.704 306.548L391.949 304.379L388.16 301.848L379.894 296.786L377.139 295.701L371.283 293.532L368.872 292.809L359.573 290.639L355.784 290.278L352.684 289.916H346.484H343.729L339.596 290.639L333.741 291.362L327.196 293.17L323.752 294.255L320.652 295.701L317.552 297.147L313.764 298.955L308.597 302.209L305.497 304.379L302.742 306.548L301.709 307.271L299.642 309.079L297.92 310.887L295.853 312.695L294.131 314.864L292.754 316.31L291.376 317.756L290.342 319.203L288.965 321.01L287.931 322.457L286.898 323.903L285.865 325.349L284.487 327.519L283.454 329.326L282.421 331.134Z" fill="#CACACA" stroke="#CACACA" stroke-width="10"/>
<path d="M252.319 400.416C263.542 378.083 299.354 330.716 352.817 319.916" stroke="white" stroke-width="10" stroke-linecap="round"/>
<path d="M245.177 457.916C244.156 458.583 239.769 461.816 230.382 469.416L226.811 489.916L241.095 507.416L266.603 514.416L288.539 519.416V526.416L273.235 540.416L252.829 573.416L233.953 607.916L223.75 651.916L254.359 665.916L289.559 676.416L334.962 683.916L384.446 677.916L403.321 674.916L430.869 664.916L449.745 652.916L439.542 618.416L430.869 601.416L404.852 556.916L392.608 533.916L386.997 524.416L365.571 501.916L362 482.916V466.416L368.632 447.416L381.385 482.916L388.527 501.916L400.261 511.416L415.565 504.916L425.258 498.416L432.4 476.916L429.849 460.416L405.872 434.416L392.608 423.416L365.571 407.916L342.104 402.416L324.759 400.416L306.394 412.416C303.673 414.249 297.721 418.516 295.681 420.916C293.13 423.916 281.907 434.416 277.316 436.916C273.643 438.916 254.359 451.749 245.177 457.916Z" fill="#68330D" stroke="#2D0707" stroke-width="3"/>
<ellipse cx="305.262" cy="456.996" rx="12.2435" ry="13" fill="black"/>
<path d="M222.618 480.996C242.514 529.996 270.572 501.496 293.018 522.996C244.453 562.996 225.849 627.996 222.618 655.496C379.743 715.496 438.41 659.996 447.592 655.496C454.938 651.896 438.75 613.996 429.737 595.496C418.344 576.83 394.945 536.696 392.497 525.496C343.013 514.496 367.5 435.496 368.52 438.996C369.54 442.496 379.233 495.496 388.415 506.996C395.762 516.196 410.522 510.83 416.984 506.996C421.915 503.83 432.288 494.196 434.328 480.996C436.879 464.496 419.534 441.996 403.21 431.996C394.537 418.496 334.34 378.996 298.12 416.996C269.144 447.396 246.935 457.663 239.453 458.996M222.618 480.996C212.824 467.396 229.76 460.663 239.453 458.996M222.618 480.996L239.453 458.996" stroke="#1F1A1A" stroke-width="10"/>
<path d="M329.861 556.416L321.698 545.916L298.742 573.416C295.681 580.749 289.559 595.816 289.559 597.416C289.559 599.016 288.879 615.083 288.539 622.916C283.777 628.416 272.826 641.316 267.113 648.916C261.399 656.516 254.529 661.749 251.808 663.416L277.826 670.916L319.147 679.916L348.736 680.916V672.416L343.124 649.916L344.145 633.416L356.388 624.916L373.733 613.916L381.385 608.416L378.324 599.416L371.182 585.916L358.429 569.916L345.675 562.916L334.452 560.916L329.861 556.416Z" fill="white" stroke="white" stroke-width="3"/>
<path d="M342.614 682.966C316.685 681.953 248.14 666.826 246.197 665.508" stroke="white" stroke-width="10"/>
<ellipse cx="350.777" cy="589.508" rx="8.16232" ry="8.5" fill="black"/>
<path d="M342.614 682.966C365.061 682.466 330.371 650.508 346.185 631.508C383.324 614.708 384.786 603.508 380.875 600.008C379.855 599.675 376.59 597.108 371.692 589.508C365.163 563.108 342.784 558.508 332.411 559.508C331.391 557.008 328.228 550.008 323.739 542.008C318.127 532.008 308.945 559.508 290.069 589.508C288.029 624.308 281.397 637.341 278.336 639.508L246.197 665.508" stroke="white" stroke-width="10"/>
<path d="M505.623 637.962L526.595 659.695L591.695 595.383L569.849 572.763M505.623 637.962L569.849 572.763M505.623 637.962C318.625 751.151 185.949 649.642 142.986 584.738C117.209 558.126 69.0611 479.621 82.6927 378.496C29.8264 284.467 47.3029 167.375 166.58 158.504C175.318 39.6373 305.518 21.4526 353.578 73.3458C416.493 25.0008 520.478 44.0727 536.207 158.504C644.561 157.173 678.64 273.822 619.22 378.496C630.405 457.622 590.966 540.977 569.849 572.763" stroke="white" stroke-width="10"/>
<path d="M653.57 647.69C650.625 644.777 645.828 644.756 642.858 647.643C639.887 650.529 639.866 655.23 642.812 658.142L648.191 652.916L653.57 647.69ZM759.125 773.142C762.07 776.055 766.866 776.076 769.837 773.189C772.808 770.303 772.829 765.602 769.883 762.69L764.504 767.916L759.125 773.142ZM648.191 652.916L642.812 658.142L759.125 773.142L764.504 767.916L769.883 762.69L653.57 647.69L648.191 652.916Z" fill="#F3CF7E"/>
<path d="M531.878 672.416L556.365 696.916L632.376 624.416L606.869 598.916M531.878 672.416L606.869 598.916M531.878 672.416C313.536 800.016 158.622 685.583 108.458 612.416C78.359 582.416 22.1411 493.916 38.0576 379.916C-23.6699 273.916 -3.26413 141.916 136.005 131.916C146.208 -2.08403 298.231 -22.584 354.347 35.916C427.808 -18.584 549.223 2.91602 567.588 131.916C694.104 130.416 733.895 261.916 664.515 379.916C677.575 469.116 631.526 563.083 606.869 598.916" stroke="#1F1A1A" stroke-width="10"/>
<rect width="19.1396" height="19.2477" transform="matrix(0.607481 -0.794334 0.805897 0.592055 567.588 583.119)" fill="#62503C"/>
<rect width="19.203" height="19.1845" transform="matrix(-0.730739 -0.682657 -0.697179 0.716897 531.741 646.028)" fill="#62503C"/>
<rect width="19.1185" height="19.2686" transform="matrix(-0.560222 -0.828343 -0.838564 0.544803 526.366 653.017)" fill="#62503C"/>
<rect width="17.1361" height="19.2477" transform="matrix(0.607481 -0.794334 0.805897 0.592055 577.896 592.649)" fill="#62503C"/>
<rect width="95.051" height="15.0718" transform="matrix(0.717443 -0.696617 0.710885 0.703308 515.553 659.469)" fill="#62503C"/>
<ellipse cx="70.0143" cy="88.6027" rx="70.0143" ry="88.6027" transform="matrix(0.929083 -0.369871 0.382847 0.923812 50.3013 220.708)" fill="#989797"/>
<ellipse cx="51.4508" cy="61.4417" rx="51.4508" ry="61.4417" transform="matrix(0.929083 -0.369871 0.382847 0.923812 71.7273 227.976)" fill="#CACACA"/>
<path d="M100.602 263.327C100.858 266.049 103.317 268.05 106.095 267.796C108.872 267.542 110.915 265.13 110.659 262.408L105.631 262.868L100.602 263.327ZM120.793 233.888C122.47 231.703 122.023 228.6 119.795 226.958C117.566 225.317 114.4 225.758 112.723 227.944L116.758 230.916L120.793 233.888ZM105.631 262.868L110.659 262.408C110.28 258.377 111.522 245.973 120.793 233.888L116.758 230.916L112.723 227.944C101.852 242.114 100.007 256.997 100.602 263.327L105.631 262.868Z" fill="white"/>
<ellipse cx="70.1701" cy="94.7267" rx="70.1701" ry="94.7267" transform="matrix(0.985904 -0.167314 0.173969 0.984751 183.057 86.2155)" fill="#989797"/>
<ellipse cx="54.5082" cy="64.2272" rx="54.5082" ry="64.2272" transform="matrix(0.954802 0.297243 -0.30829 0.951292 232.743 85.916)" fill="#CACACA"/>
<path d="M220.68 145.656C219.846 148.267 221.316 151.074 223.964 151.925C226.612 152.777 229.435 151.351 230.27 148.74L225.475 147.198L220.68 145.656ZM250.864 126.222C253.254 124.848 254.046 121.806 252.632 119.428C251.219 117.05 248.136 116.237 245.746 117.611L248.305 121.916L250.864 126.222ZM225.475 147.198L230.27 148.74C231.504 144.88 237.531 133.886 250.864 126.222L248.305 121.916L245.746 117.611C230.17 126.565 222.62 139.587 220.68 145.656L225.475 147.198Z" fill="white"/>
<ellipse cx="70.0143" cy="88.6027" rx="70.0143" ry="88.6027" transform="matrix(-0.929083 -0.369871 -0.382847 0.923812 655.338 220.708)" fill="#989797"/>
<ellipse cx="52.0063" cy="63.2776" rx="52.0063" ry="63.2776" transform="matrix(-0.929083 -0.369871 -0.382847 0.923812 629.012 228.387)" fill="#CACACA"/>
<path d="M521.569 244.318C520.056 246.635 520.704 249.728 523.017 251.225C525.329 252.723 528.431 252.059 529.944 249.742L525.756 247.03L521.569 244.318ZM561.127 229.362C563.884 229.157 565.966 226.761 565.776 224.009C565.586 221.258 563.197 219.193 560.44 219.398L560.784 224.38L561.127 229.362ZM525.756 247.03L529.944 249.742C531.939 246.687 536.056 241.769 541.636 237.506C547.219 233.242 553.914 229.897 561.127 229.362L560.784 224.38L560.44 219.398C550.639 220.125 542.114 224.594 535.582 229.583C529.05 234.573 524.16 240.349 521.569 244.318L525.756 247.03Z" fill="white"/>
<ellipse cx="70.1485" cy="94.757" rx="70.1485" ry="94.757" transform="matrix(-0.978246 -0.207447 -0.215563 0.97649 525.082 90.4229)" fill="#989797"/>
<ellipse cx="55.0225" cy="64.3548" rx="55.0225" ry="64.3548" transform="matrix(0.998861 0.047722 -0.0496734 0.998765 388.289 93.916)" fill="#CACACA"/>
<path d="M402.293 133.656C401.458 136.267 402.928 139.074 405.576 139.925C408.224 140.777 411.047 139.351 411.882 136.74L407.087 135.198L402.293 133.656ZM432.476 114.222C434.866 112.848 435.658 109.806 434.245 107.428C432.832 105.05 429.749 104.236 427.359 105.61L429.917 109.916L432.476 114.222ZM407.087 135.198L411.882 136.74C413.116 132.88 419.143 121.886 432.476 114.222L429.917 109.916L427.359 105.61C411.782 114.565 404.233 127.586 402.293 133.656L407.087 135.198Z" fill="white"/>
<path d="M1034 153.416C1039.67 153.416 1042.5 168.249 1042.5 197.916C1042.5 227.249 1039.67 241.916 1034 241.916H942.502V298.916H1003.5C1009.17 298.916 1012 311.916 1012 337.916C1012 363.583 1009.34 376.416 1004 376.416H942.502V496.916C942.502 501.583 936.169 504.583 923.502 505.916C911.169 507.583 900.835 508.416 892.502 508.416L869.002 507.416C852.669 505.416 844.502 502.083 844.502 497.416V166.416C844.502 161.083 845.502 157.583 847.502 155.916C849.835 154.249 853.169 153.416 857.502 153.416H1034ZM1065.15 256.416C1065.15 252.749 1079.48 250.916 1108.15 250.916C1136.81 250.916 1151.15 252.749 1151.15 256.416V402.416C1151.15 419.083 1156.48 427.416 1167.15 427.416C1175.15 427.416 1184.15 423.916 1194.15 416.916V256.416C1194.15 253.083 1208.31 251.416 1236.65 251.416C1264.98 251.416 1279.15 253.083 1279.15 256.416V420.416H1292.15C1303.48 420.416 1309.15 431.249 1309.15 452.916C1309.15 463.916 1306.81 475.083 1302.15 486.416C1295.48 501.083 1286.48 508.416 1275.15 508.416C1252.81 508.416 1236.31 499.249 1225.65 480.916L1225.15 481.416C1204.81 499.416 1182.98 508.416 1159.65 508.416C1127.31 508.416 1103.48 500.416 1088.15 484.416C1072.81 468.083 1065.15 441.249 1065.15 403.916V256.416ZM1449.12 502.916C1449.12 505.249 1433.95 506.416 1403.62 506.416C1373.29 505.749 1358.12 504.416 1358.12 502.416V336.416H1344.62C1339.29 336.416 1334.95 333.249 1331.62 326.916C1328.62 320.249 1327.12 312.083 1327.12 302.416C1327.12 266.416 1337.79 248.416 1359.12 248.416C1374.12 248.416 1386.62 253.083 1396.62 262.416C1406.62 271.416 1411.62 281.749 1411.62 293.416C1418.62 279.749 1427.95 268.916 1439.62 260.916C1451.62 252.583 1463.79 248.416 1476.12 248.416C1495.45 248.416 1507.12 253.416 1511.12 263.416C1512.12 266.083 1512.62 270.083 1512.62 275.416C1512.62 280.416 1510.95 289.583 1507.62 302.916C1504.62 316.249 1501.45 325.916 1498.12 331.916C1494.79 337.916 1492.79 340.916 1492.12 340.916C1491.45 340.916 1488.29 339.749 1482.62 337.416C1477.29 334.749 1472.45 333.416 1468.12 333.416C1455.45 333.416 1449.12 343.416 1449.12 363.416V502.916Z" fill="#68330D"/>
<path d="M1645.36 594.416C1645.36 596.749 1631.03 597.916 1602.36 597.916C1574.03 597.916 1559.86 596.749 1559.86 594.416V336.916H1542.86C1534.86 336.916 1529.36 329.583 1526.36 314.916C1525.36 310.249 1524.86 304.249 1524.86 296.916C1524.86 289.583 1527.19 280.916 1531.86 270.916C1538.53 256.249 1549.19 248.916 1563.86 248.916C1573.53 248.916 1582.36 251.249 1590.36 255.916C1598.69 260.249 1604.36 264.416 1607.36 268.416C1610.69 272.083 1612.36 274.249 1612.36 274.916C1634.69 257.583 1658.86 248.916 1684.86 248.916C1710.86 248.916 1733.19 259.083 1751.86 279.416C1770.53 299.416 1779.86 330.583 1779.86 372.916C1779.86 414.916 1770.53 447.583 1751.86 470.916C1733.19 493.916 1709.53 505.416 1680.86 505.416C1667.86 505.416 1656.03 504.749 1645.36 503.416V594.416ZM1665.86 336.416C1660.19 336.416 1654.69 338.249 1649.36 341.916V430.416C1655.03 431.083 1659.53 431.416 1662.86 431.416C1666.53 431.416 1669.36 431.416 1671.36 431.416C1685.03 430.083 1691.86 412.583 1691.86 378.916C1691.86 350.583 1683.19 336.416 1665.86 336.416ZM2004.21 489.916C1983.21 502.249 1956.21 508.416 1923.21 508.416C1890.21 508.416 1862.37 497.249 1839.71 474.916C1817.04 452.249 1805.71 421.083 1805.71 381.416C1805.71 341.416 1816.54 309.249 1838.21 284.916C1860.21 260.583 1887.87 248.416 1921.21 248.416C1954.54 248.416 1980.21 256.916 1998.21 273.916C2016.54 290.916 2025.71 311.583 2025.71 335.916C2025.71 389.916 1994.71 416.916 1932.71 416.916H1898.21C1898.21 426.916 1900.87 433.916 1906.21 437.916C1911.87 441.583 1920.04 443.416 1930.71 443.416C1954.04 443.416 1976.21 438.083 1997.21 427.416C1997.54 427.083 1999.04 429.416 2001.71 434.416C2009.71 448.749 2013.71 460.916 2013.71 470.916C2013.71 480.583 2010.54 486.916 2004.21 489.916ZM1941.71 345.416C1941.71 331.416 1934.87 324.416 1921.21 324.416C1914.87 324.416 1909.37 326.416 1904.71 330.416C1900.37 334.083 1898.21 339.583 1898.21 346.916V362.416H1925.21C1936.21 362.416 1941.71 356.749 1941.71 345.416ZM2140.37 379.416C2140.37 412.083 2152.7 428.416 2177.37 428.416C2193.37 428.416 2206.7 425.249 2217.37 418.916C2222.37 418.916 2226.37 427.583 2229.37 444.916C2232.7 461.916 2234.37 473.583 2234.37 479.916C2234.37 485.916 2233.54 489.916 2231.87 491.916C2214.2 502.916 2190.04 508.416 2159.37 508.416C2128.7 508.416 2102.54 497.083 2080.87 474.416C2059.54 451.416 2048.87 420.249 2048.87 380.916C2048.87 341.249 2059.37 309.249 2080.37 284.916C2101.7 260.583 2129.87 248.416 2164.87 248.416C2200.2 248.416 2224.7 256.916 2238.37 273.916C2241.37 277.583 2242.87 283.083 2242.87 290.416C2242.87 297.416 2241.54 306.083 2238.87 316.416C2232.87 337.749 2225.04 350.083 2215.37 353.416C2214.04 353.749 2212.04 353.916 2209.37 353.916C2207.04 353.916 2204.04 351.916 2200.37 347.916C2187.37 334.916 2176.87 328.416 2168.87 328.416C2161.2 328.416 2154.54 332.416 2148.87 340.416C2143.2 348.416 2140.37 361.416 2140.37 379.416ZM2385.28 500.416C2385.28 504.416 2371.28 506.416 2343.28 506.416C2309.95 505.083 2293.28 502.916 2293.28 499.916V322.916H2267.78C2261.12 322.916 2257.78 311.416 2257.78 288.416C2257.78 282.416 2258.28 275.083 2259.28 266.416C2260.62 257.749 2263.12 253.416 2266.78 253.416H2293.28V209.416C2293.28 202.749 2307.28 199.416 2335.28 199.416C2363.62 199.416 2377.78 202.083 2377.78 207.416V239.416L2378.28 253.416H2420.78C2426.45 253.416 2429.28 265.083 2429.28 288.416C2429.28 311.749 2426.45 323.416 2420.78 323.416H2385.28V500.416Z" fill="#62503C"/>
<path d="M1045 765.716C1027.2 765.716 1018.3 763.716 1018.3 759.716L1012 639.416L975.402 761.216C974.602 763.616 967.802 764.816 955.002 764.816C942.202 764.816 935.602 763.716 935.202 761.516L897.402 638.216L893.202 757.916C893.002 760.916 889.202 763.016 881.802 764.216C874.402 765.216 868.202 765.716 863.202 765.716C858.402 765.716 853.702 765.416 849.102 764.816C839.502 763.416 834.802 760.916 835.002 757.316L841.902 562.316C841.902 557.516 854.102 555.116 878.502 555.116C885.702 555.116 894.502 555.716 904.902 556.916C915.302 557.916 921.102 560.016 922.302 563.216L955.902 657.716L985.302 562.916C987.102 557.716 1000.9 555.116 1026.7 555.116C1034.1 555.116 1042.9 555.716 1053.1 556.916C1063.5 557.916 1068.7 559.816 1068.7 562.616L1077.4 759.416C1077.4 761.616 1073.5 763.216 1065.7 764.216C1057.9 765.216 1051 765.716 1045 765.716ZM1124.57 656.516C1118.97 646.516 1116.17 638.416 1116.17 632.216C1116.17 625.816 1117.87 621.716 1121.27 619.916C1132.67 614.916 1148.27 612.416 1168.07 612.416C1188.07 612.416 1202.17 617.116 1210.37 626.516C1218.57 635.716 1222.67 649.416 1222.67 667.616V715.016H1232.87C1236.27 715.016 1238.87 717.016 1240.67 721.016C1242.67 725.016 1243.67 730.516 1243.67 737.516C1243.67 744.516 1241.87 751.416 1238.27 758.216C1234.87 765.016 1230.17 768.416 1224.17 768.416C1213.37 768.416 1204.67 765.516 1198.07 759.716C1195.07 757.316 1192.77 754.416 1191.17 751.016C1181.97 762.616 1167.67 768.416 1148.27 768.416C1133.67 768.416 1121.37 763.216 1111.37 752.816C1101.37 742.416 1096.37 730.116 1096.37 715.916C1096.37 683.316 1115.87 667.016 1154.87 667.016H1171.37V664.016C1171.37 658.816 1170.47 655.516 1168.67 654.116C1167.07 652.516 1163.17 651.716 1156.97 651.716C1149.37 651.716 1138.57 653.316 1124.57 656.516ZM1148.57 711.716C1148.57 716.116 1149.77 719.516 1152.17 721.916C1154.57 724.116 1157.57 725.216 1161.17 725.216C1164.97 725.216 1168.37 723.716 1171.37 720.716V697.616H1162.97C1153.37 697.616 1148.57 702.316 1148.57 711.716ZM1329.65 763.616C1329.65 766.016 1321.25 767.216 1304.45 767.216C1284.45 766.416 1274.45 765.116 1274.45 763.316V657.116H1259.15C1255.15 657.116 1253.15 650.216 1253.15 636.416C1253.15 632.816 1253.45 628.416 1254.05 623.216C1254.85 618.016 1256.35 615.416 1258.55 615.416H1274.45V589.016C1274.45 585.016 1282.85 583.016 1299.65 583.016C1316.65 583.016 1325.15 584.616 1325.15 587.816V607.016L1325.45 615.416H1350.95C1354.35 615.416 1356.05 622.416 1356.05 636.416C1356.05 650.416 1354.35 657.416 1350.95 657.416H1329.65V763.616ZM1420.3 691.016C1420.3 710.616 1427.7 720.416 1442.5 720.416C1452.1 720.416 1460.1 718.516 1466.5 714.716C1469.5 714.716 1471.9 719.916 1473.7 730.316C1475.7 740.516 1476.7 747.516 1476.7 751.316C1476.7 754.916 1476.2 757.316 1475.2 758.516C1464.6 765.116 1450.1 768.416 1431.7 768.416C1413.3 768.416 1397.6 761.616 1384.6 748.016C1371.8 734.216 1365.4 715.516 1365.4 691.916C1365.4 668.116 1371.7 648.916 1384.3 634.316C1397.1 619.716 1414 612.416 1435 612.416C1456.2 612.416 1470.9 617.516 1479.1 627.716C1480.9 629.916 1481.8 633.216 1481.8 637.616C1481.8 641.816 1481 647.016 1479.4 653.216C1475.8 666.016 1471.1 673.416 1465.3 675.416C1464.5 675.616 1463.3 675.716 1461.7 675.716C1460.3 675.716 1458.5 674.516 1456.3 672.116C1448.5 664.316 1442.2 660.416 1437.4 660.416C1432.8 660.416 1428.8 662.816 1425.4 667.616C1422 672.416 1420.3 680.216 1420.3 691.016ZM1548.35 763.316C1548.35 765.116 1539.95 766.016 1523.15 766.016C1506.55 766.016 1498.25 764.616 1498.25 761.816V556.316C1498.25 554.916 1501.35 553.916 1507.55 553.316C1513.75 552.716 1518.95 552.416 1523.15 552.416C1539.95 552.416 1548.35 554.216 1548.35 557.816V617.816C1559.55 614.416 1568.05 612.716 1573.85 612.716C1589.05 612.716 1601.05 616.816 1609.85 625.016C1618.65 633.016 1623.05 648.016 1623.05 670.016V763.016C1623.05 764.816 1615.25 765.716 1599.65 765.716C1582.05 765.116 1573.25 764.116 1573.25 762.716V674.516C1573.25 664.716 1570.05 659.816 1563.65 659.816C1559.25 659.816 1554.15 661.916 1548.35 666.116V763.316Z" fill="#CEA74E"/>
</svg>
